<svg width="196" height="58" viewBox="0 0 196 58" fill="none" xmlns="http://www.w3.org/2000/svg">
<g id="appstore 1" clip-path="url(#clip0_2_6)">
<path id="Vector" d="M181.282 0.000244141H10.8655C9.89713 0.0151297 8.93125 0.102059 7.97582 0.260312C7.02056 0.425394 6.0953 0.732189 5.23066 1.17055C4.36032 1.6096 3.56927 2.19068 2.89004 2.88989C2.19598 3.57023 1.61983 4.36122 1.18515 5.2305C0.746794 6.09515 0.439999 7.0204 0.274917 7.97566C0.113681 8.93048 0.0315287 9.89697 0.0292969 10.8653C0.0292969 11.3132 0.0292969 11.7611 0.0292969 12.1945V45.5988C0.0292969 46.0467 0.0292969 46.4802 0.0292969 46.9281C0.0315287 47.8964 0.113681 48.8629 0.274917 49.8177C0.439866 50.7776 0.746633 51.7076 1.18515 52.5773C1.62386 53.4398 2.19965 54.2254 2.89004 54.9035C3.57039 55.5975 4.36137 56.1737 5.23066 56.6084C6.0953 57.0467 7.02056 57.3535 7.97582 57.5186C8.93125 57.6769 9.89713 57.7638 10.8655 57.7787H184.244C185.212 57.7644 186.178 57.6775 187.134 57.5186C188.089 57.3535 189.014 57.0467 189.879 56.6084C190.728 56.1683 191.499 55.5924 192.162 54.9035C192.852 54.2254 193.428 53.4398 193.867 52.5773C194.307 51.7096 194.609 50.7785 194.762 49.8177C194.926 48.8627 195.018 47.8968 195.037 46.9281V45.5988C195.037 45.0787 195.037 44.5441 195.037 44.0095V13.7838C195.037 13.2493 195.037 12.7291 195.037 12.1945V10.8653C195.018 9.89658 194.926 8.93066 194.762 7.97566C194.609 7.01946 194.307 6.09318 193.867 5.2305C193.432 4.36122 192.856 3.57023 192.162 2.88989C191.481 2.19582 190.69 1.61968 189.821 1.185C188.956 0.746638 188.031 0.439842 187.076 0.27476C186.121 0.115865 185.155 0.0289315 184.186 0.0146924H181.297L181.282 0.000244141Z" fill="#B7B7B7"/>
<path id="Vector_2" d="M12.1947 56.5219H10.8944C9.99058 56.5376 9.08698 56.4796 8.19258 56.3486C7.34913 56.1831 6.53562 55.8908 5.77973 55.4817C5.0345 55.1153 4.35572 54.6269 3.77143 54.0368C3.18064 53.4477 2.69232 52.764 2.3266 52.0141C1.94182 51.2595 1.67388 50.4508 1.53195 49.6157C1.38506 48.7224 1.30777 47.8191 1.30078 46.9139C1.30078 46.6105 1.30078 45.5846 1.30078 45.5846V12.1948C1.30078 12.1948 1.30078 11.1979 1.30078 10.9089C1.30718 10.0036 1.38448 9.10026 1.53195 8.20708C1.66421 7.36232 1.92744 6.54338 2.31216 5.77977C2.67477 5.02799 3.16343 4.34385 3.75698 3.75702C4.35157 3.17265 5.03411 2.68513 5.77973 2.3122C6.53435 1.92742 7.34304 1.65948 8.17813 1.51755C9.07616 1.36991 9.98434 1.29262 10.8944 1.28638H184.157C185.058 1.29282 185.956 1.37012 186.845 1.51755C187.689 1.65795 188.508 1.92589 189.272 2.3122C190.013 2.68601 190.691 3.17352 191.28 3.75702C192.488 4.94991 193.278 6.50037 193.534 8.17818C193.683 9.07655 193.77 9.98412 193.794 10.8944V12.1803C193.794 12.7294 193.794 13.2495 193.794 13.7696V44.0098C193.794 44.5444 193.794 45.05 193.794 45.5702V46.9139C193.771 47.8099 193.684 48.7031 193.534 49.5868C193.408 50.4348 193.139 51.2554 192.74 52.0141C192.363 52.7533 191.876 53.4305 191.295 54.0224C190.706 54.6132 190.022 55.1015 189.272 55.4672C188.514 55.8562 187.7 56.1243 186.859 56.2619C185.967 56.4134 185.063 56.4908 184.157 56.493H12.1947V56.5219Z" fill="black"/>
<path id="Vector_3" d="M46.8702 29.3303C46.8841 28.1256 47.2027 26.9439 47.7964 25.8955C48.3901 24.847 49.2395 23.9659 50.2656 23.3343C49.6116 22.4002 48.7486 21.6317 47.7453 21.0899C46.742 20.5481 45.626 20.248 44.4863 20.2135C42.059 19.9534 39.7184 21.6583 38.4758 21.6583C37.2333 21.6583 35.3261 20.228 33.2311 20.228C31.9052 20.2697 30.6128 20.6551 29.4806 21.3466C28.3485 22.038 27.4154 23.0118 26.7728 24.1723C23.9698 28.998 26.0648 36.1066 28.7377 40.0654C30.0814 41.987 31.6274 44.1253 33.6935 44.0386C35.7595 43.9519 36.4386 42.7672 38.8659 42.7672C41.2932 42.7672 41.9578 44.0386 44.0528 43.9953C46.1478 43.9519 47.5493 42.0737 48.8496 40.1376C49.8097 38.7729 50.5506 37.2666 51.0458 35.6731C49.805 35.141 48.7479 34.2563 48.0056 33.1287C47.2633 32.0011 46.8685 30.6803 46.8702 29.3303Z" fill="white"/>
<path id="Vector_4" d="M42.9261 17.6415C44.0936 16.2319 44.6686 14.4242 44.5298 12.5991C42.7389 12.7924 41.0848 13.6478 39.892 14.9975C39.3104 15.6578 38.8654 16.4268 38.5826 17.26C38.2999 18.0933 38.1851 18.9743 38.2449 19.8521C39.1414 19.861 40.0283 19.6667 40.839 19.2838C41.6498 18.901 42.3633 18.3395 42.9261 17.6415Z" fill="white"/>
<path id="Vector_5" d="M72.2412 39.2129H65.3639L63.7168 44.0675H60.8271L67.3 26.1228H70.3052L76.7924 44.0675H73.9028L72.2412 39.2129ZM66.1152 36.9734H71.5333L68.8604 29.0991H68.7881L66.1152 36.9734Z" fill="white"/>
<path id="Vector_6" d="M90.7784 37.5656C90.7784 41.6256 88.5968 44.2407 85.317 44.2407C84.4799 44.2778 83.6493 44.0778 82.9209 43.6637C82.1924 43.2497 81.5956 42.6383 81.1993 41.9001V48.3729H78.4541V31.035H81.0548V33.2312C81.4688 32.489 82.0783 31.8744 82.8169 31.4542C83.5556 31.0339 84.3952 30.824 85.2448 30.8472C88.5823 30.8472 90.7784 33.4623 90.7784 37.5656ZM88.0188 37.5656C88.0188 34.9216 86.574 33.2312 84.5513 33.2312C82.5285 33.2312 81.127 35.0083 81.127 37.5656C81.127 40.123 82.4996 41.9001 84.5513 41.9001C86.6029 41.9001 88.0188 40.1952 88.0188 37.5656Z" fill="white"/>
<path id="Vector_7" d="M105.169 37.5657C105.169 41.6256 103.002 44.2407 99.7076 44.2407C98.8723 44.2785 98.0435 44.0787 97.3172 43.6644C96.5909 43.2501 95.997 42.6384 95.6043 41.9001V48.3729H92.8447V31.0351H95.4454V33.2312C95.8627 32.479 96.481 31.8577 97.2311 31.4367C97.9813 31.0157 98.8337 30.8116 99.6932 30.8472C102.987 30.8472 105.169 33.4624 105.169 37.5657ZM102.409 37.5657C102.409 34.9216 101.051 33.2312 98.9563 33.2312C96.8613 33.2312 95.5176 35.0083 95.5176 37.5657C95.5176 40.123 96.9625 41.9724 98.9563 41.9724C100.95 41.9724 102.409 40.1952 102.409 37.5657Z" fill="white"/>
<path id="Vector_8" d="M114.69 39.0103C114.893 40.7874 116.612 41.9 119.025 41.9C121.438 41.9 122.81 40.8452 122.81 39.2415C122.81 37.6377 121.828 37.0165 119.502 36.4385L117.176 35.8751C113.881 35.0804 112.35 33.5489 112.35 31.0493C112.35 27.943 115.052 25.8191 118.88 25.8191C122.709 25.8191 125.267 27.943 125.368 31.0493H122.709C122.55 29.2578 121.062 28.1597 118.909 28.1597C116.757 28.1597 115.254 29.2433 115.254 30.8471C115.254 32.1041 116.208 32.8554 118.519 33.4333L120.499 33.9101C124.169 34.777 125.7 36.2652 125.7 38.8803C125.7 42.2467 123.027 44.3417 118.779 44.3417C114.806 44.3417 112.119 42.2901 111.945 39.0537L114.69 39.0103Z" fill="white"/>
<path id="Vector_9" d="M131.479 27.8855V30.9774H133.978V33.1013H131.479V40.3254C131.479 41.4379 131.984 41.9581 133.082 41.9581C133.376 41.976 133.67 41.976 133.964 41.9581V44.0675C133.487 44.1569 133.003 44.2005 132.519 44.1975C129.875 44.1975 128.849 43.2006 128.849 40.6577V33.1013H126.898V30.9774H128.806V27.8855H131.479Z" fill="white"/>
<path id="Vector_10" d="M135.424 37.5648C135.424 33.4471 137.851 30.8608 141.637 30.8608C145.422 30.8608 147.835 33.4471 147.835 37.5648C147.835 41.6826 145.436 44.2688 141.637 44.2688C137.837 44.2688 135.424 41.6537 135.424 37.5648ZM145.104 37.5648C145.104 34.7474 143.804 33.0714 141.637 33.0714C139.469 33.0714 138.169 34.6752 138.169 37.5648C138.169 40.4545 139.455 42.0582 141.637 42.0582C143.818 42.0582 145.104 40.3533 145.104 37.5648Z" fill="white"/>
<path id="Vector_11" d="M150.045 30.9771H152.617V33.231C152.792 32.5367 153.201 31.9238 153.774 31.495C154.348 31.0661 155.051 30.8476 155.767 30.876C156.073 30.8708 156.379 30.9048 156.677 30.9771V33.4911C156.291 33.3593 155.885 33.3005 155.478 33.3177C155.087 33.3028 154.697 33.3724 154.336 33.522C153.974 33.6715 153.649 33.8973 153.383 34.1841C153.117 34.4708 152.916 34.8117 152.793 35.1833C152.671 35.555 152.631 35.9487 152.675 36.3374V44.0672H149.987L150.045 30.9771Z" fill="white"/>
<path id="Vector_12" d="M169.116 40.2234C168.755 42.5929 166.443 44.2256 163.481 44.2256C159.681 44.2256 157.326 41.6682 157.326 37.5794C157.326 33.4905 159.696 30.8176 163.38 30.8176C167.064 30.8176 169.275 33.3027 169.275 37.276V38.1862H160.028V38.3596C159.987 38.841 160.048 39.3256 160.208 39.7814C160.369 40.2372 160.624 40.6538 160.957 41.0035C161.29 41.3532 161.694 41.6281 162.142 41.81C162.589 41.9918 163.071 42.0765 163.553 42.0583C164.187 42.1175 164.823 41.971 165.367 41.6405C165.911 41.31 166.334 40.8131 166.573 40.2234H169.116ZM160.042 36.308H166.587C166.609 35.8762 166.542 35.4446 166.39 35.04C166.238 34.6354 166.004 34.2664 165.703 33.9561C165.402 33.6457 165.041 33.4006 164.641 33.236C164.241 33.0714 163.812 32.9908 163.38 32.9993C162.943 32.9955 162.51 33.0783 162.105 33.2428C161.7 33.4074 161.332 33.6505 161.022 33.9581C160.711 34.2657 160.465 34.6318 160.297 35.0351C160.129 35.4384 160.042 35.871 160.042 36.308Z" fill="white"/>
<path id="Vector_13" d="M64.1646 16.2544H65.306C65.5049 16.2807 65.7071 16.2652 65.8997 16.209C66.0924 16.1528 66.2712 16.0571 66.4248 15.9279C66.5784 15.7988 66.7034 15.6391 66.7919 15.459C66.8803 15.2789 66.9303 15.0823 66.9386 14.8818C66.9386 14.0872 66.3462 13.5815 65.3204 13.5815C65.1179 13.5532 64.9119 13.5657 64.7143 13.6183C64.5168 13.6709 64.3317 13.7625 64.1702 13.8877C64.0086 14.0129 63.8737 14.1693 63.7735 14.3474C63.6733 14.5256 63.6097 14.7221 63.5866 14.9252H62.3152C62.3378 14.5552 62.4363 14.1939 62.6045 13.8637C62.7727 13.5334 63.0071 13.2413 63.293 13.0055C63.579 12.7697 63.9103 12.5953 64.2666 12.493C64.6228 12.3908 64.9963 12.3629 65.3638 12.4112C67.0686 12.4112 68.2534 13.3503 68.2534 14.7229C68.2583 15.1814 68.1062 15.6278 67.8224 15.9879C67.5385 16.348 67.14 16.6001 66.693 16.7023V16.8034C67.2232 16.826 67.7229 17.0575 68.083 17.4473C68.443 17.8372 68.6342 18.3537 68.6146 18.884C68.5734 19.2645 68.457 19.6329 68.2723 19.9681C68.0875 20.3032 67.838 20.5983 67.5382 20.8362C67.2385 21.0741 66.8945 21.2501 66.5261 21.354C66.1578 21.4579 65.7725 21.4876 65.3926 21.4413C63.5144 21.4413 62.2285 20.4299 62.1562 18.8984H63.4421C63.5144 19.722 64.2657 20.2566 65.3926 20.2566C66.5196 20.2566 67.242 19.6497 67.242 18.8117C67.242 17.9737 66.5485 17.3669 65.3493 17.3669H64.1646V16.2544Z" fill="white"/>
<path id="Vector_14" d="M70.0742 19.3896C70.0742 18.2193 70.9411 17.5547 72.4871 17.4535L74.2498 17.3379V16.7745C74.2498 16.0954 73.8019 15.7053 72.9205 15.7053C72.0392 15.7053 71.7069 15.9654 71.5624 16.4277H70.3198C70.4499 15.3007 71.5046 14.5928 72.9783 14.5928C74.452 14.5928 75.5356 15.4019 75.5356 16.7745V21.239H74.2931V20.3143H74.192C73.9883 20.6441 73.6999 20.9132 73.3568 21.0936C73.0138 21.274 72.6286 21.3592 72.2415 21.3401C71.9681 21.3684 71.6919 21.339 71.4307 21.2539C71.1694 21.1689 70.9289 21.0299 70.7247 20.8461C70.5205 20.6623 70.357 20.4377 70.245 20.1868C70.133 19.9359 70.0748 19.6643 70.0742 19.3896ZM74.2498 18.7828V18.2337L72.6605 18.3349C71.7647 18.3349 71.3601 18.7105 71.3601 19.274C71.3601 19.8375 71.8658 20.1987 72.5738 20.1987C72.7777 20.2205 72.9839 20.2008 73.18 20.1408C73.376 20.0807 73.5579 19.9815 73.7146 19.8491C73.8712 19.7168 73.9994 19.5541 74.0914 19.3708C74.1834 19.1875 74.2373 18.9875 74.2498 18.7828Z" fill="white"/>
<path id="Vector_15" d="M78.9451 15.8063V21.2388H77.6592V14.7227H81.9936V15.8063H78.9451Z" fill="white"/>
<path id="Vector_16" d="M89.7233 17.974C89.7233 20.0546 88.6686 21.3405 87.036 21.3405C86.6303 21.3634 86.2265 21.2711 85.8711 21.0743C85.5157 20.8774 85.2233 20.584 85.0277 20.228H84.9265V23.3632H83.6406V14.6943H84.8832V15.7779H84.9699C85.1719 15.4127 85.4697 15.1094 85.8312 14.9006C86.1926 14.6919 86.6042 14.5856 87.0215 14.5931C88.6686 14.622 89.7233 15.8935 89.7233 17.974ZM88.3941 17.974C88.3941 16.6015 87.7439 15.7779 86.6603 15.7779C85.5767 15.7779 84.8976 16.6303 84.8976 17.9885C84.8976 19.3466 85.5767 20.228 86.6892 20.228C87.8017 20.228 88.3941 19.3611 88.3941 17.974Z" fill="white"/>
<path id="Vector_17" d="M91.4283 23.5653V22.4672H91.8473C92.1219 22.4863 92.3939 22.4043 92.6122 22.2366C92.8304 22.0689 92.9798 21.8272 93.032 21.557L93.1187 21.2391L90.7637 14.7085H92.2085L93.8411 19.881H93.9134L95.5316 14.7085H96.9764L94.5491 21.4847C93.9856 23.074 93.3788 23.5797 92.0496 23.5797L91.4283 23.5653Z" fill="white"/>
<path id="Vector_18" d="M97.8867 19.3896H99.1582C99.2882 19.9675 99.8228 20.2565 100.603 20.2565C101.383 20.2565 102.048 19.8809 102.048 19.3029C102.048 18.725 101.571 18.3782 100.603 18.3782H99.635V17.338H100.589C101.369 17.338 101.759 17.0346 101.759 16.4855C101.759 15.9365 101.383 15.6475 100.589 15.6475C99.7939 15.6475 99.346 15.9509 99.2593 16.4711H98.0312C98.1205 15.8805 98.4392 15.349 98.918 14.992C99.3967 14.6349 99.997 14.4811 100.589 14.5639C102.134 14.5639 103.016 15.2574 103.016 16.3555C103.024 16.6612 102.926 16.9604 102.739 17.2026C102.552 17.4447 102.288 17.615 101.99 17.6847V17.7859C102.342 17.8284 102.667 17.9993 102.901 18.2658C103.136 18.5322 103.264 18.8757 103.261 19.2307C103.261 20.4588 102.221 21.2823 100.603 21.2823C98.9848 21.2823 98.0023 20.7044 97.8867 19.3896Z" fill="white"/>
<path id="Vector_19" d="M105.082 21.2388V14.7227H106.353V19.2016H106.469L109.46 14.7227H110.731V21.2388H109.46V16.731H109.359L106.353 21.2388H105.082Z" fill="white"/>
<path id="Vector_20" d="M117.739 15.8063H115.702V21.2388H114.416V15.8063H112.364V14.7227H117.739V15.8063Z" fill="white"/>
<path id="Vector_21" d="M124.659 19.4761C124.484 20.0846 124.096 20.6096 123.565 20.9546C123.034 21.2997 122.397 21.4416 121.77 21.3544C121.338 21.3773 120.907 21.3033 120.509 21.1377C120.11 20.9722 119.753 20.7193 119.465 20.3978C119.176 20.0762 118.964 19.6941 118.843 19.2796C118.721 18.865 118.695 18.4286 118.764 18.0024C118.706 17.5771 118.741 17.1443 118.865 16.7333C118.989 16.3224 119.2 15.943 119.483 15.6208C119.767 15.2987 120.117 15.0415 120.509 14.8665C120.901 14.6916 121.326 14.6031 121.755 14.6071C123.576 14.6071 124.645 15.8352 124.645 17.8868V18.3347H120.137V18.4069C120.123 18.6423 120.158 18.878 120.239 19.0994C120.32 19.3208 120.446 19.5232 120.608 19.6939C120.771 19.8647 120.967 20.0001 121.184 20.0919C121.401 20.1837 121.635 20.2298 121.871 20.2274C122.178 20.2632 122.489 20.2068 122.765 20.0653C123.04 19.9238 123.267 19.7036 123.417 19.4328L124.659 19.4761ZM120.137 17.3378H123.431C123.447 17.119 123.418 16.8993 123.344 16.6926C123.27 16.486 123.154 16.2971 123.003 16.1379C122.852 15.9788 122.67 15.8529 122.467 15.7684C122.265 15.684 122.047 15.6427 121.827 15.6473C121.605 15.6454 121.384 15.6878 121.178 15.7721C120.972 15.8564 120.785 15.9808 120.628 16.1382C120.471 16.2955 120.346 16.4826 120.262 16.6886C120.178 16.8946 120.135 17.1152 120.137 17.3378Z" fill="white"/>
<path id="Vector_22" d="M130.106 14.7227H132.996C134.268 14.7227 135.019 15.3728 135.019 16.3842C135.012 16.7019 134.901 17.0086 134.703 17.2567C134.504 17.5048 134.229 17.6806 133.921 17.7568V17.8579C134.304 17.8579 134.671 18.0101 134.942 18.2811C135.213 18.5521 135.366 18.9196 135.366 19.3027C135.366 20.4442 134.513 21.181 133.083 21.181H130.193L130.106 14.7227ZM131.378 15.7196V17.3378H132.649C133.43 17.3378 133.791 17.0488 133.791 16.4998C133.791 15.9508 133.473 15.6618 132.794 15.6618L131.378 15.7196ZM131.378 18.3492V20.2274H132.823C133.588 20.2274 133.993 19.8807 133.993 19.2738C133.993 18.667 133.531 18.3203 132.664 18.3203L131.378 18.3492Z" fill="white"/>
</g>
<defs>
<clipPath id="clip0_2_6">
<rect width="195.051" height="57.7929" fill="white"/>
</clipPath>
</defs>
</svg>
