<svg width="196" height="58" viewBox="0 0 196 58" fill="none" xmlns="http://www.w3.org/2000/svg">
<g id="googleplay 1" clip-path="url(#clip0_2_29)">
<path id="Vector" d="M187.827 0.133057H7.22411C3.23434 0.133057 0 3.3674 0 7.35717V50.7018C0 54.6916 3.23434 57.9259 7.22411 57.9259H187.827C191.817 57.9259 195.051 54.6916 195.051 50.7018V7.35717C195.051 3.3674 191.817 0.133057 187.827 0.133057Z" fill="black"/>
<path id="Vector_2" d="M187.827 1.28891C189.436 1.28891 190.98 1.92825 192.118 3.06626C193.256 4.20428 193.895 5.74777 193.895 7.35717V50.7018C193.895 52.3112 193.256 53.8547 192.118 54.9927C190.98 56.1307 189.436 56.7701 187.827 56.7701H7.22411C5.61471 56.7701 4.07123 56.1307 2.93321 54.9927C1.79519 53.8547 1.15586 52.3112 1.15586 50.7018V7.35717C1.15586 5.74777 1.79519 4.20428 2.93321 3.06626C4.07123 1.92825 5.61471 1.28891 7.22411 1.28891H187.827ZM187.827 0.133057H7.22411C5.30816 0.133057 3.47068 0.894166 2.11589 2.24895C0.761109 3.60373 0 5.44121 0 7.35717L0 50.7018C0 52.6178 0.761109 54.4553 2.11589 55.81C3.47068 57.1648 5.30816 57.9259 7.22411 57.9259H187.827C189.743 57.9259 191.58 57.1648 192.935 55.81C194.29 54.4553 195.051 52.6178 195.051 50.7018V7.35717C195.051 5.44121 194.29 3.60373 192.935 2.24895C191.58 0.894166 189.743 0.133057 187.827 0.133057Z" fill="#A6A6A6"/>
<path id="Vector_3" d="M98.4497 31.5581C97.2324 31.561 96.0433 31.9248 95.0327 32.6035C94.0221 33.2822 93.2355 34.2453 92.7723 35.371C92.3091 36.4968 92.1901 37.7346 92.4304 38.928C92.6707 40.1214 93.2594 41.2167 94.1222 42.0755C94.985 42.9342 96.0831 43.5179 97.2776 43.7525C98.4721 43.9872 99.7094 43.8624 100.833 43.394C101.957 42.9255 102.916 42.1343 103.59 41.1206C104.264 40.1068 104.622 38.916 104.619 37.6986C104.631 36.8866 104.479 36.0804 104.173 35.3282C103.867 34.576 103.412 33.893 102.837 33.3201C102.261 32.7472 101.576 32.2959 100.822 31.9932C100.069 31.6905 99.2618 31.5426 98.4497 31.5581ZM98.4497 41.4263C97.7036 41.4785 96.959 41.305 96.3128 40.9284C95.6666 40.5518 95.1486 39.9895 94.8262 39.3146C94.5037 38.6397 94.3918 37.8834 94.5049 37.144C94.618 36.4047 94.9509 35.7165 95.4604 35.1688C95.9698 34.6212 96.6322 34.2394 97.3615 34.0733C98.0907 33.9071 98.8531 33.9641 99.5495 34.237C100.246 34.5098 100.844 34.9859 101.266 35.6032C101.689 36.2206 101.916 36.9507 101.917 37.6986C101.941 38.1726 101.869 38.6463 101.706 39.0921C101.543 39.5378 101.293 39.9464 100.97 40.2938C100.647 40.6412 100.257 40.9204 99.8243 41.1149C99.3915 41.3094 98.9241 41.4153 98.4497 41.4263ZM84.984 31.5581C83.7667 31.561 82.5775 31.9248 81.567 32.6035C80.5564 33.2822 79.7697 34.2453 79.3065 35.371C78.8433 36.4968 78.7243 37.7346 78.9646 38.928C79.2049 40.1214 79.7937 41.2167 80.6565 42.0755C81.5193 42.9342 82.6174 43.5179 83.8119 43.7525C85.0064 43.9872 86.2436 43.8624 87.3672 43.394C88.4908 42.9255 89.4502 42.1343 90.1241 41.1206C90.7981 40.1068 91.1563 38.916 91.1534 37.6986C91.1652 36.8866 91.0134 36.0804 90.7072 35.3282C90.401 34.576 89.9465 33.893 89.3709 33.3201C88.7952 32.7472 88.1102 32.2959 87.3565 31.9932C86.6029 31.6905 85.796 31.5426 84.984 31.5581ZM84.984 41.4263C84.2379 41.4785 83.4933 41.305 82.8471 40.9284C82.2008 40.5518 81.6828 39.9895 81.3604 39.3146C81.038 38.6397 80.9261 37.8834 81.0392 37.144C81.1523 36.4047 81.4852 35.7165 81.9946 35.1688C82.5041 34.6212 83.1665 34.2394 83.8957 34.0733C84.625 33.9071 85.3874 33.9641 86.0838 34.237C86.7802 34.5098 87.3784 34.9859 87.8007 35.6032C88.223 36.2206 88.4498 36.9507 88.4516 37.6986C88.4749 38.1726 88.403 38.6463 88.2403 39.0921C88.0775 39.5378 87.8272 39.9464 87.504 40.2938C87.1808 40.6412 86.7913 40.9204 86.3585 41.1149C85.9257 41.3094 85.4584 41.4153 84.984 41.4263ZM68.9754 33.4509V36.0515H75.217C75.1191 37.2765 74.61 38.4323 73.7722 39.3313C73.1461 39.9692 72.393 40.4686 71.5618 40.7971C70.7305 41.1256 69.8395 41.276 68.9465 41.2385C67.1072 41.2385 65.3432 40.5078 64.0426 39.2072C62.742 37.9066 62.0113 36.1426 62.0113 34.3033C62.0113 32.464 62.742 30.7 64.0426 29.3994C65.3432 28.0988 67.1072 27.3682 68.9465 27.3682C70.7098 27.3419 72.4125 28.0116 73.6855 29.232L75.5204 27.3971C74.6593 26.5453 73.6368 25.8741 72.513 25.4225C71.3891 24.971 70.1864 24.7483 68.9754 24.7675C67.6909 24.7175 66.4096 24.9273 65.2082 25.3844C64.0068 25.8414 62.91 26.5363 61.9835 27.4274C61.0571 28.3185 60.3201 29.3874 59.8166 30.5702C59.3132 31.7529 59.0537 33.0251 59.0537 34.3105C59.0537 35.596 59.3132 36.8682 59.8166 38.0509C60.3201 39.2336 61.0571 40.3026 61.9835 41.1936C62.91 42.0847 64.0068 42.7796 65.2082 43.2367C66.4096 43.6937 67.6909 43.9036 68.9754 43.8536C70.2113 43.9029 71.4437 43.6903 72.5916 43.2296C73.7396 42.769 74.7771 42.0707 75.636 41.1807C77.1532 39.5139 77.9617 37.3218 77.8899 35.0691C77.8951 34.5269 77.8516 33.9853 77.7599 33.4509H68.9754ZM134.44 35.4736C134.063 34.3651 133.359 33.3971 132.42 32.6979C131.481 31.9987 130.351 31.6012 129.181 31.5581C128.391 31.5566 127.609 31.7172 126.883 32.0299C126.157 32.3427 125.503 32.801 124.961 33.3765C124.42 33.952 124.002 34.6325 123.734 35.3759C123.465 36.1193 123.352 36.9099 123.402 37.6986C123.389 39.0175 123.804 40.3051 124.584 41.3689C125.364 42.4327 126.467 43.2157 127.728 43.6009C128.989 43.9862 130.342 43.953 131.583 43.5064C132.824 43.0598 133.887 42.2236 134.614 41.1229L132.519 39.678C132.206 40.1986 131.763 40.6284 131.234 40.925C130.704 41.2215 130.106 41.3744 129.499 41.3685C128.873 41.3943 128.253 41.2302 127.722 40.8975C127.191 40.5649 126.773 40.0793 126.523 39.5047L134.744 36.1093L134.44 35.4736ZM126.06 37.5253C126.031 37.0765 126.092 36.6263 126.238 36.2012C126.385 35.7761 126.615 35.3846 126.915 35.0496C127.216 34.7146 127.579 34.4428 127.986 34.2501C128.392 34.0575 128.833 33.9478 129.282 33.9277C129.748 33.8992 130.211 34.0088 130.615 34.2427C131.018 34.4766 131.344 34.8244 131.551 35.2424L126.06 37.5253ZM119.385 43.4779H122.087V25.4176H119.385V43.4779ZM114.964 32.9307H114.863C114.453 32.4842 113.952 32.1307 113.393 31.8939C112.835 31.6572 112.233 31.5427 111.627 31.5581C110.048 31.6347 108.559 32.3158 107.468 33.4604C106.378 34.6049 105.77 36.1251 105.77 37.7059C105.77 39.2866 106.378 40.8068 107.468 41.9514C108.559 43.0959 110.048 43.777 111.627 43.8536C112.239 43.8659 112.847 43.7427 113.406 43.493C113.966 43.2432 114.463 42.873 114.863 42.4088H114.964V43.2901C114.964 45.6452 113.707 46.9022 111.684 46.9022C111.009 46.8873 110.353 46.672 109.799 46.2835C109.246 45.8951 108.821 45.351 108.578 44.7205L106.237 45.6885C106.67 46.7754 107.422 47.7053 108.395 48.3554C109.368 49.0055 110.515 49.3452 111.684 49.3295C114.848 49.3295 117.464 47.4656 117.464 42.9289V31.9193H114.964V32.9307ZM111.858 41.4263C110.911 41.3673 110.023 40.9496 109.373 40.2584C108.724 39.5671 108.362 38.6543 108.362 37.7059C108.362 36.7574 108.724 35.8446 109.373 35.1533C110.023 34.4621 110.911 34.0445 111.858 33.9854C112.32 34.0054 112.774 34.1182 113.193 34.3172C113.611 34.5162 113.985 34.7973 114.292 35.1437C114.599 35.4902 114.834 35.8949 114.982 36.3338C115.129 36.7727 115.187 37.2369 115.152 37.6986C115.191 38.162 115.136 38.6285 114.99 39.07C114.844 39.5115 114.61 39.9188 114.302 40.2672C113.994 40.6157 113.619 40.898 113.199 41.0973C112.779 41.2965 112.322 41.4084 111.858 41.4263ZM147.097 25.4176H140.624V43.4779H143.326V36.6295H147.097C147.867 36.6848 148.64 36.5809 149.368 36.3242C150.096 36.0676 150.764 35.6636 151.329 35.1377C151.894 34.6117 152.345 33.975 152.653 33.2671C152.961 32.5593 153.12 31.7956 153.12 31.0236C153.12 30.2516 152.961 29.4878 152.653 28.78C152.345 28.0722 151.894 27.4354 151.329 26.9094C150.764 26.3835 150.096 25.9796 149.368 25.7229C148.64 25.4662 147.867 25.3623 147.097 25.4176ZM147.097 34.0866H143.326V27.9316H147.155C147.975 27.9316 148.761 28.2574 149.341 28.8372C149.921 29.4171 150.247 30.2035 150.247 31.0236C150.247 31.8436 149.921 32.63 149.341 33.2099C148.761 33.7897 147.975 34.1155 147.155 34.1155L147.097 34.0866ZM163.77 31.5003C162.786 31.4397 161.806 31.6687 160.951 32.1592C160.096 32.6497 159.403 33.38 158.959 34.26L161.343 35.2569C161.584 34.8226 161.945 34.4673 162.384 34.234C162.822 34.0007 163.319 33.8993 163.813 33.9421C164.156 33.902 164.504 33.9307 164.836 34.0264C165.168 34.1221 165.477 34.2828 165.746 34.4994C166.015 34.7159 166.238 34.9838 166.402 35.2875C166.567 35.5913 166.669 35.9246 166.703 36.2683V36.4416C165.834 35.985 164.867 35.7469 163.886 35.7481C161.314 35.7481 158.684 37.1929 158.684 39.8225C158.71 40.3814 158.847 40.9296 159.089 41.4343C159.33 41.939 159.671 42.3901 160.09 42.7607C160.509 43.1314 160.998 43.414 161.529 43.5918C162.059 43.7696 162.62 43.839 163.178 43.7958C163.856 43.8333 164.532 43.6898 165.136 43.3801C165.74 43.0703 166.251 42.6054 166.616 42.0331H166.703V43.4779H169.304V36.5283C169.304 33.3642 166.905 31.5292 163.828 31.5292L163.77 31.5003ZM163.438 41.3974C162.557 41.3974 161.328 40.9495 161.328 39.8659C161.328 38.421 162.86 37.9298 164.218 37.9298C165.076 37.9086 165.925 38.1182 166.674 38.5366C166.584 39.3213 166.211 40.0464 165.627 40.5778C165.043 41.1091 164.285 41.4105 163.496 41.4263L163.438 41.3974ZM178.782 31.9193L175.69 39.7503H175.603L172.396 31.9193H169.506L174.317 42.8711L171.572 48.9538H174.462L181.787 31.9193H178.782ZM154.509 43.4779H157.196V25.4176H154.509V43.4779Z" fill="white"/>
<path id="Vector_4" d="M15.0835 11.0274C14.6229 11.5967 14.3957 12.3197 14.4477 13.0502V45.0096C14.3986 45.747 14.6426 46.474 15.1268 47.0324L15.2279 47.148L33.0859 29.2466V28.8132L15.1846 10.9263L15.0835 11.0274Z" fill="url(#paint0_linear_2_29)"/>
<path id="Vector_5" d="M39.0097 35.2141L33.0859 29.247V28.8136L39.0097 22.8464L39.1397 22.9331L46.2338 26.9497C48.2566 28.0911 48.2566 29.9694 46.2338 31.1253L39.1686 35.1419L39.0097 35.2141Z" fill="url(#paint1_linear_2_29)"/>
<path id="Vector_6" d="M39.1836 35.1272L33.0865 29.03L15.084 47.0325C15.4923 47.3959 16.0148 47.605 16.5611 47.6235C17.1074 47.6419 17.6429 47.4686 18.0748 47.1336L39.1836 35.1272Z" fill="url(#paint2_linear_2_29)"/>
<path id="Vector_7" d="M39.1836 22.9321L18.0748 10.94C17.6457 10.6004 17.1106 10.4229 16.5636 10.4387C16.0166 10.4546 15.4927 10.6628 15.084 11.0267L33.0865 29.0292L39.1836 22.9321Z" fill="url(#paint3_linear_2_29)"/>
<path id="Vector_8" opacity="0.2" d="M39.0102 34.9966L18.0748 46.9164C17.6586 47.2305 17.1514 47.4004 16.6299 47.4004C16.1085 47.4004 15.6013 47.2305 15.1851 46.9164L15.084 47.0175L15.1851 47.1331C15.6013 47.4472 16.1085 47.6171 16.6299 47.6171C17.1514 47.6171 17.6586 47.4472 18.0748 47.1331L39.1836 35.1266L39.0102 34.9966Z" fill="black"/>
<path id="Vector_9" opacity="0.12" d="M15.0835 46.8304C14.6194 46.2573 14.3919 45.5285 14.4477 44.7932V45.0099C14.3986 45.7473 14.6426 46.4743 15.1268 47.0327L15.2279 46.9315L15.0835 46.8304Z" fill="black"/>
<path id="Vector_10" opacity="0.12" d="M46.2339 30.9083L39.0098 34.9971L39.1398 35.1272L46.2339 31.1106C46.6526 30.9335 47.0159 30.6468 47.2854 30.2807C47.5549 29.9145 47.7207 29.4825 47.7654 29.03C47.6751 29.4412 47.4894 29.8254 47.2234 30.1516C46.9574 30.4779 46.6184 30.737 46.2339 30.9083Z" fill="black"/>
<path id="Vector_11" opacity="0.25" d="M18.0747 11.1425L46.2343 27.1511C46.6189 27.3224 46.9578 27.5815 47.2238 27.9078C47.4898 28.234 47.6755 28.6182 47.7658 29.0294C47.7212 28.5769 47.5554 28.1449 47.2859 27.7787C47.0163 27.4126 46.6531 27.1259 46.2343 26.9488L18.0747 10.9402C16.0664 9.78434 14.4482 10.7379 14.4482 13.0496V13.2664C14.4482 10.9547 16.0664 10.0011 18.0747 11.1425Z" fill="white"/>
<path id="Vector_12" d="M60.8409 20.7514H59.7861V17.8618H60.6819C61.085 17.4242 61.388 16.9043 61.5702 16.338C61.7523 15.7716 61.8091 15.1725 61.7366 14.582V10.2476H67.5159V17.8473H68.484V20.737H67.4148V18.9165H60.8409V20.7514ZM62.8492 14.582C62.9136 15.7426 62.6266 16.8957 62.0256 17.8907H66.3601V11.3167H62.8492V14.582Z" fill="white" stroke="white" stroke-width="0.0330894" stroke-miterlimit="10"/>
<path id="Vector_13" d="M77.168 17.7885C76.7507 18.2062 76.2552 18.5375 75.7098 18.7635C75.1644 18.9896 74.5798 19.1059 73.9894 19.1059C73.399 19.1059 72.8144 18.9896 72.269 18.7635C71.7236 18.5375 71.2281 18.2062 70.8108 17.7885C70.396 17.3655 70.0699 16.8638 69.8516 16.313C69.6332 15.7622 69.5271 15.1734 69.5394 14.581C69.5252 13.9897 69.6291 13.4015 69.8449 12.8507C70.0607 12.3 70.3842 11.7978 70.7964 11.3735C71.2137 10.9559 71.7092 10.6246 72.2546 10.3985C72.8 10.1725 73.3846 10.0562 73.975 10.0562C74.5654 10.0562 75.15 10.1725 75.6954 10.3985C76.2408 10.6246 76.7363 10.9559 77.1536 11.3735C77.5736 11.7942 77.905 12.2948 78.1284 12.8457C78.3517 13.3966 78.4624 13.9867 78.4539 14.581C78.471 15.1753 78.3657 15.7667 78.1444 16.3185C77.9232 16.8703 77.5909 17.3707 77.168 17.7885ZM71.6344 17.0661C71.9388 17.3823 72.3049 17.6327 72.71 17.8017C73.1151 17.9706 73.5505 18.0547 73.9894 18.0486C74.4287 18.0573 74.8649 17.9745 75.2704 17.8053C75.6758 17.6362 76.0416 17.3844 76.3445 17.0661C76.6673 16.7402 76.9198 16.3515 77.0863 15.924C77.2528 15.4965 77.3298 15.0395 77.3125 14.581C77.3298 14.1226 77.2528 13.6655 77.0863 13.2381C76.9198 12.8106 76.6673 12.4219 76.3445 12.0959C76.0416 11.7777 75.6758 11.5259 75.2704 11.3568C74.8649 11.1876 74.4287 11.1048 73.9894 11.1135C73.5505 11.1074 73.1151 11.1914 72.71 11.3604C72.3049 11.5294 71.9388 11.7798 71.6344 12.0959C71.3162 12.4246 71.0678 12.8141 70.9039 13.2412C70.74 13.6682 70.6641 14.1239 70.6808 14.581C70.6641 15.0381 70.74 15.4939 70.9039 15.9209C71.0678 16.348 71.3162 16.7375 71.6344 17.0661Z" fill="white" stroke="white" stroke-width="0.0330894" stroke-miterlimit="10"/>
<path id="Vector_14" d="M84.0597 19.1037C83.4751 19.1129 82.8947 19.0037 82.3534 18.7827C81.8121 18.5618 81.3211 18.2335 80.91 17.8179C80.4809 17.3979 80.1438 16.8933 79.9199 16.3362C79.6961 15.7791 79.5904 15.1816 79.6096 14.5815C79.5904 13.9814 79.6961 13.3838 79.9199 12.8267C80.1438 12.2696 80.4809 11.765 80.91 11.3451C81.3279 10.9222 81.8283 10.5899 82.3801 10.3686C82.9318 10.1474 83.5233 10.0421 84.1175 10.0592C84.7224 10.042 85.3231 10.1633 85.874 10.4137C86.4249 10.6641 86.9113 11.037 87.2961 11.504L86.5303 12.2553C86.2465 11.8904 85.8792 11.5989 85.4594 11.4053C85.0395 11.2117 84.5793 11.1217 84.1175 11.1428C83.6728 11.1314 83.2304 11.2115 82.8179 11.378C82.4053 11.5445 82.0314 11.7939 81.7191 12.1108C81.3869 12.4296 81.1243 12.8137 80.9478 13.2389C80.7713 13.664 80.6846 14.1212 80.6933 14.5815C80.6731 15.0424 80.7487 15.5025 80.9153 15.9327C81.0819 16.3629 81.3359 16.7539 81.6613 17.081C81.9736 17.3979 82.3475 17.6473 82.7601 17.8138C83.1726 17.9803 83.615 18.0604 84.0597 18.049C84.5637 18.0469 85.0609 17.933 85.5156 17.7156C85.9702 17.4983 86.3711 17.1829 86.6893 16.792L87.4695 17.5578C87.0737 18.0321 86.5811 18.4164 86.0247 18.6848C85.41 18.9719 84.738 19.1152 84.0597 19.1037Z" fill="white" stroke="white" stroke-width="0.0330894" stroke-miterlimit="10"/>
<path id="Vector_15" d="M92.0066 18.9165H90.8941V11.3167H88.4668V10.2476H94.4195V11.3167H92.0066V18.9165Z" fill="white" stroke="white" stroke-width="0.0330894" stroke-miterlimit="10"/>
<path id="Vector_16" d="M102.077 10.2476L98.7974 17.5584C98.7178 17.8515 98.5755 18.1238 98.3803 18.3564C98.185 18.5891 97.9415 18.7765 97.6667 18.9057C97.3918 19.0349 97.0921 19.1028 96.7884 19.1046C96.4847 19.1065 96.1842 19.0423 95.9077 18.9165L96.1967 17.8907C96.3735 17.99 96.5719 18.0446 96.7747 18.0496C96.9885 18.0603 97.2004 18.0048 97.3815 17.8907C97.557 17.7446 97.6914 17.5554 97.7716 17.3416L98.0894 16.6481L95.1709 10.2476H96.4857L98.624 15.2177L100.762 10.2476H102.077Z" fill="white" stroke="white" stroke-width="0.0330894" stroke-miterlimit="10"/>
<path id="Vector_17" d="M103.333 18.9165V10.2476H109.604V18.9165H108.491V11.3167H104.446V18.9165H103.333Z" fill="white" stroke="white" stroke-width="0.0330894" stroke-miterlimit="10"/>
<path id="Vector_18" d="M111.584 18.9165V10.2476H112.696V13.9608H117.031V10.2476H118.158V18.9165H117.031V15.001H112.696V18.9165H111.584Z" fill="white" stroke="white" stroke-width="0.0330894" stroke-miterlimit="10"/>
<path id="Vector_19" d="M127.231 17.7885C126.814 18.2062 126.318 18.5375 125.773 18.7635C125.227 18.9896 124.643 19.1059 124.052 19.1059C123.462 19.1059 122.877 18.9896 122.332 18.7635C121.786 18.5375 121.291 18.2062 120.874 17.7885C120.451 17.3707 120.118 16.8703 119.897 16.3185C119.676 15.7667 119.571 15.1753 119.588 14.581C119.571 13.9868 119.676 13.3954 119.897 12.8436C120.118 12.2918 120.451 11.7914 120.874 11.3735C121.29 10.9563 121.784 10.6253 122.328 10.3995C122.872 10.1736 123.456 10.0574 124.045 10.0574C124.634 10.0574 125.218 10.1736 125.762 10.3995C126.306 10.6253 126.8 10.9563 127.216 11.3735C127.639 11.7914 127.972 12.2918 128.193 12.8436C128.414 13.3954 128.519 13.9868 128.502 14.581C128.521 15.1742 128.418 15.765 128.199 16.3167C127.981 16.8685 127.651 17.3694 127.231 17.7885ZM121.697 17.0661C122 17.3844 122.366 17.6361 122.771 17.8053C123.177 17.9744 123.613 18.0573 124.052 18.0486C124.491 18.0547 124.927 17.9706 125.332 17.8016C125.737 17.6326 126.103 17.3823 126.407 17.0661C126.725 16.7375 126.974 16.348 127.138 15.9209C127.302 15.4939 127.378 15.0381 127.361 14.581C127.378 14.1239 127.302 13.6682 127.138 13.2411C126.974 12.8141 126.725 12.4246 126.407 12.0959C126.103 11.7797 125.737 11.5294 125.332 11.3604C124.927 11.1914 124.491 11.1074 124.052 11.1135C123.613 11.1047 123.177 11.1876 122.771 11.3568C122.366 11.5259 122 11.7776 121.697 12.0959C121.374 12.4219 121.122 12.8106 120.955 13.2381C120.789 13.6655 120.712 14.1226 120.729 14.581C120.712 15.0394 120.789 15.4965 120.955 15.924C121.122 16.3515 121.374 16.7402 121.697 17.0661Z" fill="white" stroke="white" stroke-width="0.0330894" stroke-miterlimit="10"/>
<path id="Vector_20" d="M133.054 18.9156V10.2467H136.189C136.839 10.2402 137.468 10.4773 137.952 10.9113C138.193 11.1209 138.386 11.3809 138.515 11.673C138.645 11.9651 138.709 12.2822 138.703 12.6018C138.706 12.991 138.596 13.3727 138.385 13.6998C138.172 14.0101 137.877 14.2551 137.533 14.4078C137.948 14.5467 138.311 14.8087 138.573 15.1591C138.849 15.5087 138.997 15.942 138.992 16.3872C138.999 16.7203 138.933 17.0509 138.798 17.3555C138.664 17.6602 138.463 17.9314 138.212 18.1499C137.71 18.6165 137.047 18.8703 136.362 18.8579L133.054 18.9156ZM134.166 13.9599H136.189C136.378 13.9709 136.568 13.9389 136.743 13.8663C136.918 13.7937 137.074 13.6825 137.2 13.5409C137.445 13.3008 137.586 12.9737 137.59 12.6307C137.604 12.2866 137.485 11.9504 137.258 11.6915C137.137 11.5568 136.987 11.4506 136.82 11.3807C136.652 11.3107 136.471 11.2787 136.29 11.287H134.166V13.9599ZM134.166 17.8465H136.406C136.604 17.8542 136.801 17.818 136.983 17.7406C137.166 17.6632 137.329 17.5464 137.46 17.3986C137.71 17.1321 137.849 16.7811 137.851 16.4161C137.842 16.0541 137.697 15.7087 137.446 15.4481C137.307 15.3018 137.138 15.1864 136.952 15.1093C136.765 15.0321 136.564 14.995 136.362 15.0002H134.166V17.8465Z" fill="white" stroke="white" stroke-width="0.0330894" stroke-miterlimit="10"/>
</g>
<defs>
<linearGradient id="paint0_linear_2_29" x1="31.4966" y1="12.7178" x2="7.25253" y2="36.962" gradientUnits="userSpaceOnUse">
<stop stop-color="#00A0FF"/>
<stop offset="0.01" stop-color="#00A1FF"/>
<stop offset="0.26" stop-color="#00BEFF"/>
<stop offset="0.51" stop-color="#00D2FF"/>
<stop offset="0.76" stop-color="#00DFFF"/>
<stop offset="1" stop-color="#00E3FF"/>
</linearGradient>
<linearGradient id="paint1_linear_2_29" x1="48.8778" y1="29.0303" x2="13.9276" y2="29.0303" gradientUnits="userSpaceOnUse">
<stop stop-color="#FFE000"/>
<stop offset="0.41" stop-color="#FFBD00"/>
<stop offset="0.78" stop-color="#FFA500"/>
<stop offset="1" stop-color="#FF9C00"/>
</linearGradient>
<linearGradient id="paint2_linear_2_29" x1="35.875" y1="32.3531" x2="2.99082" y2="65.2228" gradientUnits="userSpaceOnUse">
<stop stop-color="#FF3A44"/>
<stop offset="1" stop-color="#C31162"/>
</linearGradient>
<linearGradient id="paint3_linear_2_29" x1="10.5472" y1="0.392829" x2="25.2266" y2="15.0722" gradientUnits="userSpaceOnUse">
<stop stop-color="#32A071"/>
<stop offset="0.07" stop-color="#2DA771"/>
<stop offset="0.48" stop-color="#15CF74"/>
<stop offset="0.8" stop-color="#06E775"/>
<stop offset="1" stop-color="#00F076"/>
</linearGradient>
<clipPath id="clip0_2_29">
<rect width="195.051" height="57.7929" fill="white" transform="translate(0 0.133057)"/>
</clipPath>
</defs>
</svg>
