<svg width="145" height="47" viewBox="0 0 145 47" fill="none" xmlns="http://www.w3.org/2000/svg">
<g clip-path="url(#clip0_2_266)">
<path fill-rule="evenodd" clip-rule="evenodd" d="M117.885 19.34L117.742 19.7145C117.602 20.0889 117.502 20.3087 117.367 20.6108C117.281 20.798 117.183 21.0178 117.046 21.3355L114.159 28.5926C113.654 29.8846 112.648 30.625 111.405 30.625C110.975 30.625 110.468 30.4931 110.182 30.3739L109.924 30.2633L110.04 29.9995C110.442 29.1301 110.701 28.8493 111.539 28.7798C111.856 28.7543 112.202 28.3756 112.445 27.7885L112.568 27.4878L109.953 21.3327C109.814 21.0036 109.71 20.7484 109.604 20.4916C109.503 20.252 109.405 20.0165 109.28 19.7244L109.115 19.3386H110.403C111.148 19.3386 111.477 19.5712 111.762 20.3073C111.762 20.3073 113.2 23.9266 113.308 24.1904C113.412 24.457 113.539 25.0938 113.539 25.0938L113.605 25.0896C113.605 25.0896 113.698 24.5209 113.809 24.189C113.923 23.86 115.203 20.3172 115.203 20.3172C115.472 19.5911 115.837 19.3386 116.595 19.3386H117.885V19.34Z" fill="#E51A4B"/>
<path fill-rule="evenodd" clip-rule="evenodd" d="M101.794 19.2436C100.919 19.2436 99.8396 20.0066 99.6021 20.9823V20.398C99.6021 19.8818 99.297 19.3386 98.3355 19.3386H97.6172V27.7955H99.6527V24.2854C99.6527 23.7635 99.7061 23.3252 99.8242 22.9409C100.129 21.9325 100.883 21.2816 101.744 21.2816C101.954 21.2816 102.128 21.3199 102.128 21.3199L102.464 21.3993V19.3116L102.232 19.2762C102.224 19.2762 102.009 19.2407 101.792 19.2407L101.794 19.2436Z" fill="#E51A4B"/>
<path fill-rule="evenodd" clip-rule="evenodd" d="M107.696 19.2436C106.824 19.2436 105.749 20.0066 105.508 20.9823V20.398C105.508 19.8818 105.207 19.3386 104.243 19.3386H103.523V27.7955H105.559V24.2854C105.559 23.7635 105.615 23.3252 105.73 22.9409C106.035 21.9325 106.79 21.2816 107.652 21.2816C107.863 21.2816 108.036 21.3199 108.036 21.3199L108.37 21.3993V19.3116L108.141 19.2762C108.131 19.2762 107.918 19.2407 107.697 19.2407L107.696 19.2436Z" fill="#E51A4B"/>
<path fill-rule="evenodd" clip-rule="evenodd" d="M64.9075 19.438C62.3702 19.438 60.457 21.3299 60.457 23.8388C60.457 26.3476 62.3688 28.2722 64.9075 28.2722C67.4462 28.2722 69.3749 26.3235 69.3749 23.8388C69.3749 21.354 67.4561 19.438 64.9075 19.438ZM64.9075 26.4044C63.5482 26.4044 62.5206 25.301 62.5206 23.8388C62.5206 22.3766 63.5468 21.303 64.9075 21.303C66.2682 21.303 67.3099 22.3936 67.3099 23.8388C67.3099 25.284 66.2781 26.4044 64.9075 26.4044Z" fill="#E51A4B"/>
<path fill-rule="evenodd" clip-rule="evenodd" d="M55.6811 19.4379C54.5312 19.4379 53.7426 19.9102 53.283 20.313H53.2239C53.2239 20.313 53.283 19.8492 53.283 19.3783V17.7786C53.283 16.9177 52.8697 16.5007 52.0249 16.5007H51.2461V23.911C51.3473 26.6014 52.999 28.2735 55.5616 28.2735C57.9218 28.2735 59.7028 26.3745 59.7028 23.8557C59.7028 21.3369 57.9738 19.4379 55.6797 19.4379H55.6811ZM55.3437 26.4185C54.035 26.4185 53.2 25.1293 53.2 23.8827C53.2 21.9907 54.3949 21.3171 55.3733 21.3171C56.4936 21.3171 57.6505 22.273 57.6505 23.8685C57.6505 25.464 56.4767 26.4199 55.3437 26.4199V26.4185Z" fill="#E51A4B"/>
<path fill-rule="evenodd" clip-rule="evenodd" d="M83.1909 19.4379C82.0396 19.4379 81.2524 19.9102 80.7899 20.313H80.7323C80.7323 20.313 80.7899 19.8492 80.7899 19.3783V17.7786C80.7899 16.9177 80.3795 16.5007 79.5346 16.5007H78.7559V23.911C78.8557 26.6014 80.5102 28.2735 83.0658 28.2735C85.4288 28.2735 87.2098 26.3745 87.2098 23.8557C87.2098 21.3369 85.4808 19.4379 83.1895 19.4379H83.1909ZM82.8521 26.4185C81.5448 26.4185 80.7098 25.1293 80.7098 23.8827C80.7098 21.9907 81.9046 21.3171 82.883 21.3171C84.0048 21.3171 85.1617 22.273 85.1617 23.8685C85.1617 25.464 83.9879 26.4199 82.8521 26.4199V26.4185Z" fill="#E51A4B"/>
<path fill-rule="evenodd" clip-rule="evenodd" d="M76.5332 26.2313L74.8786 23.5665L76.2872 21.4292C76.543 21.0392 76.744 20.7598 76.9563 20.4662C77.1109 20.2535 77.2683 20.0379 77.4427 19.7798L77.7393 19.3486H76.2042C75.3411 19.3486 75.0192 19.5387 74.5581 20.3145C74.5581 20.3145 73.9382 21.354 73.8511 21.5001C73.7695 21.6433 73.5559 22.127 73.5517 22.1397H73.4954C73.4954 22.1397 73.3042 21.6916 73.1876 21.5001C73.0751 21.3058 72.4735 20.3102 72.4735 20.3102C71.9871 19.5387 71.661 19.3486 70.8316 19.3486H69.3008L69.6114 19.784C69.9811 20.3145 70.1948 20.6265 70.5139 21.0945L72.1544 23.5693L70.7613 25.9023C70.5041 26.2881 70.3045 26.5717 70.0894 26.8653C69.9334 27.0794 69.7787 27.2922 69.6016 27.5475L69.3078 27.9829H70.8428C71.7045 27.9829 72.0279 27.7957 72.4903 27.0199C72.4903 27.0199 73.1074 25.9831 73.1946 25.8342C73.2761 25.691 73.4912 25.206 73.4982 25.1946H73.5545C73.5545 25.1946 73.7442 25.6399 73.8595 25.8342C73.9748 26.0257 74.575 27.0241 74.575 27.0241C75.0628 27.7957 75.3861 27.9829 76.2169 27.9829H77.7463L77.4342 27.5475C77.0673 27.0199 76.8523 26.7079 76.536 26.2342L76.5332 26.2313Z" fill="#E51A4B"/>
<path fill-rule="evenodd" clip-rule="evenodd" d="M94.9698 25.6738C94.7378 25.6738 94.5256 25.7731 94.3175 25.8681L94.2866 25.8809C93.855 26.0823 93.3293 26.3276 92.7066 26.3276C91.6467 26.3276 90.2747 25.6667 90.1538 24.2145H96.0142C96.0508 23.9379 96.0718 23.5323 96.0718 23.3153C96.0718 20.9355 94.5171 19.3372 92.2174 19.3372C89.7602 19.3372 88.041 21.1553 88.041 23.755C88.041 26.3546 90.0779 28.1714 92.6307 28.1714C94.7027 28.1714 95.861 26.8893 95.9102 26.8396L96.0493 26.6992L95.9664 26.5191C95.7766 26.1277 95.5011 25.6738 94.9684 25.6738H94.9698ZM92.3608 20.9511C93.2281 20.9511 94.1404 21.4915 94.1404 22.6374H90.1721C90.307 21.7581 91.1898 20.9511 92.3594 20.9511H92.3608Z" fill="#E51A4B"/>
<path fill-rule="evenodd" clip-rule="evenodd" d="M35.4032 29.0125C36.2902 28.1133 37.7241 28.1133 38.6096 29.0125C39.4995 29.9131 39.4995 31.3739 38.6096 32.2744C37.7241 33.1764 36.2888 33.1764 35.4032 32.2744C34.5218 31.3739 34.5218 29.9131 35.4032 29.0125Z" fill="#E51A4B"/>
<path fill-rule="evenodd" clip-rule="evenodd" d="M39.2139 25.1392C38.3297 26.0384 38.3297 27.4977 39.2139 28.4012C40.1009 29.2989 41.5376 29.2989 42.4232 28.4012C43.3074 27.4992 43.3074 26.0384 42.4232 25.1392C41.5376 24.2401 40.1009 24.2401 39.2139 25.1392Z" fill="#E51A4B"/>
<path fill-rule="evenodd" clip-rule="evenodd" d="M43.0294 21.2646C42.1438 22.1638 42.1438 23.6246 43.0294 24.5223C43.915 25.4272 45.3517 25.4272 46.2373 24.5223C47.12 23.6246 47.12 22.1638 46.2373 21.2646C45.3503 20.3626 43.915 20.3626 43.0294 21.2646Z" fill="#E51A4B"/>
<path fill-rule="evenodd" clip-rule="evenodd" d="M31.596 25.1392C30.7076 26.0384 30.7076 27.4992 31.596 28.4012C32.4816 29.2989 33.9182 29.2989 34.8038 28.4012C35.688 27.4992 35.688 26.0384 34.8038 25.1392C33.9168 24.2401 32.4816 24.2401 31.596 25.1392Z" fill="#E51A4B"/>
<path fill-rule="evenodd" clip-rule="evenodd" d="M27.7824 21.2646C26.8954 22.1652 26.8954 23.6246 27.7824 24.5223C28.668 25.4272 30.1033 25.4272 30.9889 24.5223C31.8759 23.6246 31.8759 22.1652 30.9889 21.2646C30.1033 20.3626 28.6666 20.3626 27.7824 21.2646Z" fill="#E51A4B"/>
<path fill-rule="evenodd" clip-rule="evenodd" d="M35.4032 21.2646C34.5218 22.1638 34.5218 23.6246 35.4032 24.5223C36.2902 25.4272 37.7241 25.4272 38.6139 24.5223C39.4995 23.6246 39.4995 22.1638 38.6139 21.2646C37.7241 20.3626 36.2902 20.3626 35.4032 21.2646Z" fill="#E51A4B"/>
<path fill-rule="evenodd" clip-rule="evenodd" d="M31.596 17.3901C30.7076 18.2907 30.7076 19.7501 31.596 20.6521C32.4816 21.5526 33.9182 21.5526 34.8038 20.6521C35.688 19.7501 35.688 18.2907 34.8038 17.3901C33.9168 16.4881 32.4816 16.4881 31.596 17.3901Z" fill="#E51A4B"/>
<path fill-rule="evenodd" clip-rule="evenodd" d="M39.2139 17.3901C38.3297 18.2907 38.3297 19.7501 39.2139 20.6521C40.1009 21.5526 41.5376 21.5526 42.4232 20.6521C43.3074 19.7501 43.3074 18.2907 42.4232 17.3901C41.5376 16.4881 40.1009 16.4881 39.2139 17.3901Z" fill="#E51A4B"/>
<path fill-rule="evenodd" clip-rule="evenodd" d="M35.4032 13.5154C36.2902 12.6134 37.7241 12.6134 38.6139 13.5154C39.4995 14.4174 39.4995 15.8753 38.6139 16.7759C37.7241 17.6765 36.2902 17.6765 35.4032 16.7759C34.5218 15.8753 34.5218 14.4174 35.4032 13.5154Z" fill="#B0CB1F"/>
<path fill-rule="evenodd" clip-rule="evenodd" d="M53.3997 31.5271V33.5949H53.044V31.8561H52.1149V33.5949H51.7578V31.5271H53.3997Z" fill="#E51A4B"/>
<path fill-rule="evenodd" clip-rule="evenodd" d="M54.4159 31.527V32.8928L55.8089 31.3682V33.5948H55.4575V32.2149L54.0645 33.7395V31.527H54.4159Z" fill="#E51A4B"/>
<path fill-rule="evenodd" clip-rule="evenodd" d="M58.0682 32.107C57.8827 31.8674 57.6128 31.7979 57.4301 31.7979C57.0533 31.7979 56.7103 32.0645 56.7103 32.5665C56.7103 33.0686 57.0632 33.3367 57.4258 33.3367C57.6367 33.3367 57.8967 33.2416 58.0823 33.0119V33.4416C57.8602 33.6047 57.6283 33.6558 57.4371 33.6558C56.8031 33.6558 56.3477 33.1962 56.3477 32.5751C56.3477 31.9539 56.8087 31.4788 57.4371 31.4788C57.7604 31.4788 57.9698 31.6064 58.0682 31.6773V32.107Z" fill="#E51A4B"/>
<path fill-rule="evenodd" clip-rule="evenodd" d="M58.625 31.5271H58.9778V32.3199H59.3405C59.5232 32.3199 59.7763 32.3369 59.9576 32.5241C60.0391 32.605 60.1151 32.7496 60.1151 32.9609C60.1151 33.185 60.0223 33.3382 59.9323 33.4233C59.758 33.5921 59.5373 33.5963 59.3349 33.5963H58.625V31.5285V31.5271ZM59.3054 33.2772C59.4234 33.2772 59.5373 33.2729 59.6202 33.2219C59.6624 33.1921 59.7524 33.1184 59.7524 32.9595C59.7524 32.8673 59.7257 32.7624 59.6231 32.6986C59.5359 32.639 59.422 32.639 59.3096 32.639H58.9778V33.2772H59.3054Z" fill="#E51A4B"/>
<path fill-rule="evenodd" clip-rule="evenodd" d="M60.8397 31.3682L61.6831 33.0516L62.5054 31.3682L62.996 33.5948H62.6291L62.3634 32.3155L61.6718 33.7395L60.9718 32.3155L60.7117 33.5948H60.3477L60.8397 31.3682Z" fill="#E51A4B"/>
<path fill-rule="evenodd" clip-rule="evenodd" d="M64.9843 31.5269H65.3385V33.5947H64.9843V33.3054C64.8676 33.4614 64.6469 33.6543 64.2884 33.6543C63.774 33.6543 63.2988 33.287 63.2988 32.558C63.2988 31.829 63.7683 31.4773 64.2884 31.4773C64.6806 31.4773 64.8929 31.6943 64.9843 31.8205V31.5255V31.5269ZM63.6629 32.5594C63.6629 33.0033 63.9075 33.3366 64.3278 33.3366C64.7481 33.3366 65.004 32.9721 65.004 32.5651C65.004 32.0304 64.6427 31.7978 64.3278 31.7978C63.9792 31.7978 63.6629 32.0559 63.6629 32.5594Z" fill="#E51A4B"/>
<path fill-rule="evenodd" clip-rule="evenodd" d="M67.4988 31.527V32.8928L68.8918 31.3682V33.5948H68.539V32.2149L67.1445 33.7395V31.527H67.4988Z" fill="#E51A4B"/>
<path fill-rule="evenodd" clip-rule="evenodd" d="M72.3369 31.5271V33.5949H71.984V31.8561H71.052V33.5949H70.6992V31.5271H72.3369Z" fill="#E51A4B"/>
<path fill-rule="evenodd" clip-rule="evenodd" d="M72.877 32.5665C72.877 31.9411 73.3338 31.4773 73.9565 31.4773C74.5793 31.4773 75.0347 31.9411 75.0347 32.5665C75.0347 33.1919 74.5722 33.6557 73.9565 33.6557C73.3408 33.6557 72.877 33.1962 72.877 32.5665ZM73.241 32.5665C73.241 33.0771 73.5939 33.3366 73.9565 33.3366C74.3192 33.3366 74.6706 33.0728 74.6706 32.5665C74.6706 32.0602 74.3276 31.7978 73.9565 31.7978C73.5854 31.7978 73.241 32.0644 73.241 32.5665Z" fill="#E51A4B"/>
<path fill-rule="evenodd" clip-rule="evenodd" d="M77.1645 32.107C76.9775 31.8674 76.709 31.7979 76.5277 31.7979C76.1496 31.7979 75.808 32.0645 75.808 32.5665C75.808 33.0686 76.1622 33.3367 76.5235 33.3367C76.7344 33.3367 76.9944 33.2416 77.1786 33.0119V33.4416C76.9579 33.6047 76.7245 33.6558 76.5333 33.6558C75.9008 33.6558 75.4453 33.1962 75.4453 32.5751C75.4453 31.9539 75.9064 31.4788 76.5333 31.4788C76.8566 31.4788 77.0675 31.6064 77.1659 31.6773V32.107H77.1645Z" fill="#E51A4B"/>
<path fill-rule="evenodd" clip-rule="evenodd" d="M77.7188 31.5271H78.0744V32.3199H78.4343C78.6184 32.3199 78.8714 32.3369 79.0528 32.5241C79.1301 32.605 79.2102 32.7496 79.2102 32.9609C79.2102 33.185 79.116 33.3382 79.0289 33.4233C78.8532 33.5921 78.6311 33.5963 78.43 33.5963H77.7188V31.5285V31.5271ZM78.4019 33.2772C78.5186 33.2772 78.6325 33.2729 78.714 33.2219C78.7604 33.1921 78.8461 33.1184 78.8461 32.9595C78.8461 32.8673 78.825 32.7624 78.7196 32.6986C78.6325 32.639 78.5186 32.639 78.4075 32.639H78.0744V33.2772H78.4019ZM79.4562 31.5271H79.8104V33.5949H79.4562V31.5271Z" fill="#E51A4B"/>
<path fill-rule="evenodd" clip-rule="evenodd" d="M82.0119 33.5948H81.659V31.8561H80.9351V32.7879C80.9351 32.9637 80.9351 33.1921 80.7777 33.3849C80.7144 33.4644 80.5612 33.6048 80.2871 33.6048C80.2547 33.6048 80.2154 33.5991 80.1816 33.5948V33.2672C80.2041 33.2715 80.2351 33.2757 80.259 33.2757C80.3911 33.2757 80.4754 33.2077 80.5148 33.141C80.5795 33.0417 80.5823 32.9127 80.5823 32.7864V31.5256H82.0133V33.5934L82.0119 33.5948Z" fill="#E51A4B"/>
<path fill-rule="evenodd" clip-rule="evenodd" d="M83.0317 31.5271V32.3752L83.8568 31.5271H84.2884L83.407 32.449L84.3966 33.5949H83.9355L83.1427 32.6901L83.0317 32.7922V33.5949H82.6816V31.5271H83.0317Z" fill="#E51A4B"/>
<path fill-rule="evenodd" clip-rule="evenodd" d="M85.1028 31.527V32.8928L86.4945 31.3682V33.5948H86.1431V32.2149L84.75 33.7395V31.527H85.1028Z" fill="#E51A4B"/>
</g>
<defs>
<clipPath id="clip0_2_266">
<rect width="90.7681" height="20.9006" fill="white" transform="translate(27.1172 12.8389)"/>
</clipPath>
</defs>
</svg>
