<svg width="144" height="47" viewBox="0 0 144 47" fill="none" xmlns="http://www.w3.org/2000/svg">
<g clip-path="url(#clip0_2_300)">
<path fill-rule="evenodd" clip-rule="evenodd" d="M47.8978 28.3032H44.8464C40.0863 28.3032 43.5445 18.1951 47.552 18.1951H52.3732C53.1461 18.1951 54.5091 18.3375 55.1804 16.4257L56.2179 13.4563H49.6066C46.0263 13.4563 43.2394 14.7173 41.2255 16.8324C37.7469 20.4526 36.5671 26.1067 37.4011 28.8117C38.1945 31.3133 40.3508 32.9607 43.7276 33.0014L46.3518 33.0217H49.5862L50.3796 30.6421C50.9695 28.9541 49.6473 28.3032 47.8978 28.3032ZM85.0431 24.1135L86.0398 20.8798H75.4008C73.631 20.8798 72.8376 21.3679 72.5325 22.3848L71.5357 25.6186H82.1748C83.9446 25.6186 84.738 25.1305 85.0431 24.1135ZM69.949 29.8083L68.9522 33.042H79.5913C81.3408 33.042 82.1545 32.5539 82.4596 31.537L83.4564 28.3032H72.8173C71.0679 28.3032 70.2745 28.7913 69.949 29.8083ZM87.5248 16.7104L88.5218 13.4766H77.8826C76.1128 13.4766 75.3194 13.9648 75.0143 14.9817L74.0175 18.2155H84.6566C86.4063 18.2155 87.1993 17.7273 87.5248 16.7104ZM71.4544 17.3612C71.0068 14.3512 69.3997 13.4766 65.494 13.4766H58.3742L54.2243 25.6186H56.8485C58.4148 25.6186 59.2082 25.6389 60.0422 23.4017L61.7714 18.1951H64.4159C66.6739 18.1951 66.1653 21.0221 65.0261 23.7678C64.009 26.188 62.2392 28.3236 60.1032 28.3236H55.689C53.9192 28.3236 53.1055 28.8117 52.78 29.8286L51.6815 33.0624H54.916L58.0894 33.042C60.8966 33.0217 63.1953 32.8183 65.8805 30.3981C68.7285 27.8151 72.0239 21.1848 71.4544 17.3612ZM107.217 13.4563H101.053L95.2551 19.6188C94.5836 20.3306 93.892 21.0424 93.2205 21.8764H93.1595L96.0481 13.4563H91.0239L84.2497 33.042H89.2744L91.4305 26.8796L93.668 24.9881L95.4381 30.5608C95.9871 32.2895 96.5571 33.042 97.7777 33.042H101.622L97.6757 22.1001L107.217 13.4563Z" fill="#00B33C"/>
</g>
<defs>
<clipPath id="clip0_2_300">
<rect width="70.7633" height="20.0048" fill="white" transform="translate(36.8096 13.436)"/>
</clipPath>
</defs>
</svg>
