<svg width="165" height="130" viewBox="0 0 165 130" fill="none" xmlns="http://www.w3.org/2000/svg">
<path d="M106.607 37.5005L87.5791 18.4723L68.211 26.2874L98.7922 56.8686L106.607 37.5005Z" fill="white"/>
<path d="M57.8292 47.2987L76.8575 66.3269L96.2255 58.5118L65.6444 27.9306L57.8292 47.2987Z" fill="white"/>
<path fill-rule="evenodd" clip-rule="evenodd" d="M81.8882 81.8875C103.624 81.8875 121.245 64.2669 121.245 42.5307C121.245 20.7946 103.624 3.17394 81.8882 3.17394C60.152 3.17394 42.5314 20.7946 42.5314 42.5307C42.5314 64.2669 60.152 81.8875 81.8882 81.8875ZM81.8882 85.0615C105.377 85.0615 124.419 66.0198 124.419 42.5307C124.419 19.0417 105.377 0 81.8882 0C58.3991 0 39.3574 19.0417 39.3574 42.5307C39.3574 66.0198 58.3991 85.0615 81.8882 85.0615Z" fill="white"/>
<path d="M0 128.911V104.622C1.38638 104.329 3.91029 104.072 6.39865 104.072C9.59798 104.072 11.6242 104.512 13.2239 105.65C14.7169 106.567 15.7122 108.181 15.7122 110.309C15.7122 112.584 14.3259 114.639 11.7309 115.629V115.74C14.2548 116.4 16.5654 118.455 16.5654 121.83C16.5654 124.032 15.6412 125.756 14.2903 126.93C12.584 128.471 9.77572 129.242 5.36776 129.242C2.95049 129.242 1.13754 129.058 0 128.911ZM4.33686 107.594V114.382H6.57639C9.63353 114.382 11.3043 112.914 11.3043 110.823C11.3043 108.475 9.59798 107.411 6.82523 107.411C5.5455 107.411 4.79899 107.484 4.33686 107.594ZM4.33686 117.647V125.719C4.90563 125.829 5.65214 125.829 6.64749 125.829C9.45579 125.829 11.9797 124.765 11.9797 121.683C11.9797 118.822 9.52688 117.647 6.5053 117.647H4.33686Z" fill="white"/>
<path d="M32.8881 121.977H25.2808L23.219 128.985H18.7044L26.3828 104.255H31.9638L39.7489 128.985H35.0565L32.8881 121.977ZM25.9918 118.565H32.1416L30.2575 112.474C29.7954 110.97 29.4044 109.282 29.0489 107.851H28.9778C28.6223 109.282 28.2668 111.006 27.8403 112.474L25.9918 118.565Z" fill="white"/>
<path d="M42.0148 127.811L43.0101 124.068C44.3965 124.912 46.5649 125.646 48.8044 125.646C51.5772 125.646 53.1413 124.288 53.1413 122.27C53.1413 120.399 51.9327 119.298 48.9111 118.161C44.9297 116.73 42.4058 114.529 42.4058 111.006C42.4058 106.934 45.6762 103.888 50.9018 103.888C53.4968 103.888 55.3808 104.475 56.625 105.099L55.5941 108.768C54.7054 108.291 53.0347 107.594 50.7951 107.594C48.0224 107.594 46.8493 109.098 46.8493 110.566C46.8493 112.474 48.2357 113.355 51.435 114.602C55.5941 116.253 57.5848 118.418 57.5848 121.94C57.5848 125.94 54.6699 129.352 48.5201 129.352C45.9606 129.352 43.33 128.618 42.0148 127.811Z" fill="white"/>
<path d="M61.5148 104.255H65.8872V128.985H61.5148V104.255Z" fill="white"/>
<path d="M69.8214 127.811L70.8168 124.068C72.2031 124.912 74.3716 125.646 76.6111 125.646C79.3838 125.646 80.948 124.288 80.948 122.27C80.948 120.399 79.7393 119.298 76.7177 118.161C72.7364 116.73 70.2124 114.529 70.2124 111.006C70.2124 106.934 73.4829 103.888 78.7084 103.888C81.3034 103.888 83.1875 104.475 84.4317 105.099L83.4008 108.768C82.5121 108.291 80.8413 107.594 78.6018 107.594C75.829 107.594 74.656 109.098 74.656 110.566C74.656 112.474 76.0423 113.355 79.2417 114.602C83.4008 116.253 85.3915 118.418 85.3915 121.94C85.3915 125.94 82.4765 129.352 76.3267 129.352C73.7673 129.352 71.1367 128.618 69.8214 127.811Z" fill="white"/>
<path d="M91.3122 129.388H91.2766C89.7125 129.388 88.6105 128.141 88.6105 126.49C88.6105 124.802 89.7481 123.591 91.3122 123.591C92.9118 123.591 94.0138 124.765 94.0138 126.49C94.0138 128.141 92.9474 129.388 91.3122 129.388Z" fill="white"/>
<path d="M114.181 124.692L114.892 128.251C113.861 128.765 111.586 129.352 108.671 129.352C101.064 129.352 96.4427 124.435 96.4427 116.914C96.4427 108.768 101.953 103.888 109.276 103.888C112.155 103.888 114.181 104.475 115.07 104.952L114.146 108.548C113.008 108.034 111.408 107.594 109.453 107.594C104.583 107.594 101.064 110.75 101.064 116.693C101.064 122.124 104.121 125.573 109.418 125.573C111.16 125.573 113.008 125.206 114.181 124.692Z" fill="white"/>
<path d="M118.621 104.255H122.993V128.985H118.621V104.255Z" fill="white"/>
<path d="M132.58 128.985V108.034H125.754V104.255H143.848V108.034H136.952V128.985H132.58Z" fill="white"/>
<path d="M157.037 128.985H152.665V118.675L145.093 104.255H150.105L152.949 110.603C153.767 112.437 154.371 113.832 155.047 115.519H155.118C155.686 113.942 156.362 112.401 157.179 110.603L160.059 104.255H165L157.037 118.565V128.985Z" fill="white"/>
</svg>
